<!-- whatsapp.svg - Ãcono SVG de WhatsApp -->
<svg xmlns="http://www.w3.org/2000/svg" viewBox="0 0 32 32" width="24" height="24"><circle cx="16" cy="16" r="16" fill="#25d366"/><path d="M24.5 20.5c-.4-.2-2.3-1.1-2.6-1.2-.3-.1-.5-.2-.7.2-.2.4-.7 1.2-.9 1.4-.2.2-.3.3-.7.1-.4-.2-1.5-.6-2.8-1.8-1-1-1.7-2.2-1.9-2.6-.2-.4 0-.6.2-.8.2-.2.4-.5.6-.7.2-.2.2-.4.3-.6.1-.2 0-.5 0-.7 0-.2-.7-1.7-1-2.3-.3-.6-.6-.5-.8-.5-.2 0-.4 0-.6 0-.2 0-.5.1-.7.3-.2.2-.9.9-.9 2.1 0 1.2.9 2.3 1 2.5.1.2 1.7 2.7 4.1 3.7 1.6.7 2.2.8 2.6.7.4-.1 1.3-.5 1.5-1 .2-.5.2-.9.1-1.1z" fill="#fff"/></svg>
